#!OML:ASF E:\emotionWalksFemale\Project 1\Capture day 1\Session 1\Female1.ASF
:FULLY-SPECIFIED
:DEGREES
383
root 8.75271 15.6284 -7.93333 -179.784 -2.39759 -179.275
lowerback 8.93793 1.65771 1.63982
upperback -4.48861 2.33125 -0.533267
thorax -9.72789 0.973226 -1.88672
lowerneck -6.21023 -3.614 -7.41648
upperneck 2.93219 -4.44996 4.91303
head 2.35698 -2.18246 2.73635
rclavicle -1.28713e-014 -5.96354e-016
rhumerus -33.4606 -0.254329 -75.0783
rradius 42.3285
rwrist 10.383
rhand -10.5336 -56.0824
rfingers 7.12502
rthumb 15.4697 -85.4834
lclavicle -1.28713e-014 -5.96354e-016
lhumerus -43.0592 21.0074 61.3159
lradius 37.9548
lwrist -9.04362
lhand -7.22898 -32.5374
lfingers 7.12502
lthumb 18.6506 -3.41153
rfemur 4.65189 19.2088 27.3574
rtibia 13.1931
rfoot -17.4522 -34.645
rtoes 5.20527
lfemur -1.84401 -20.5255 -25.0953
ltibia 22.418
lfoot -23.394 24.0509
ltoes -20.2619
384
root 8.75505 15.6286 -7.92055 -179.805 -2.51556 -179.24
lowerback 9.02703 1.6922 1.65564
upperback -4.52369 2.37709 -0.574567
thorax -9.81512 0.990561 -1.95183
lowerneck -6.13011 -3.67827 -7.51312
upperneck 3.01425 -4.54371 5.07862
head 2.38566 -2.22765 2.80771
rclavicle -1.26601e-014 -2.5842e-015
rhumerus -33.5144 1.17221 -75.3756
rradius 42.9832
rwrist 11.417
rhand -9.68392 -55.9423
rfingers 7.12502
rthumb 16.288 -85.2782
lclavicle -1.26601e-014 -2.5842e-015
lhumerus -42.1754 20.0895 62.2399
lradius 38.9184
lwrist -8.01309
lhand -7.40757 -32.6266
lfingers 7.12502
lthumb 18.4788 -3.48426
rfemur 4.70751 19.1706 27.3871
rtibia 13.0116
rfoot -17.3711 -34.64
rtoes 5.52243
lfemur -1.93677 -20.5911 -25.021
ltibia 22.5041
lfoot -23.4896 23.9647
ltoes -20.5152
385
root 8.75864 15.6306 -7.90726 -179.808 -2.63529 -179.23
lowerback 9.07832 1.6999 1.61328
upperback -4.52646 2.38033 -0.604432
thorax -9.84883 0.993216 -1.96267
lowerneck -6.2039 -3.69613 -7.72478
upperneck 3.25394 -4.56664 5.38157
head 2.50063 -2.23503 2.95079
rclavicle -2.38666e-014 -3.18055e-015
rhumerus -33.4944 2.84999 -75.8716
rradius 43.3338
rwrist 11.7161
rhand -10.7366 -54.4533
rfingers 7.12502
rthumb 15.2743 -83.8693
lclavicle -2.38666e-014 -3.18055e-015
lhumerus -41.4626 18.9006 63.1982
lradius 40.2942
lwrist -6.78008
lhand -7.45649 -32.5155
lfingers 7.12502
lthumb 18.4317 -3.36872
rfemur 4.72094 19.2556 27.4173
rtibia 12.9143
rfoot -17.2862 -34.7575
rtoes 5.44835
lfemur -2.04315 -20.6526 -24.9521
ltibia 22.547
lfoot -23.4892 23.839
ltoes -20.4481
386
root 8.76338 15.631 -7.89431 -179.847 -2.69301 -179.168
lowerback 9.04531 1.73608 1.57492
upperback -4.47958 2.425 -0.603754
thorax -9.77719 1.01985 -1.94559
lowerneck -6.21334 -3.71687 -7.83193
upperneck 3.41691 -4.60003 5.57427
head 2.57114 -2.2493 3.03663
rclavicle 4.8578e-014 7.15625e-015
rhumerus -33.3575 4.47353 -76.2782
rradius 43.5726
rwrist 12.6738
rhand -10.5741 -53.3971
rfingers 7.12502
rthumb 15.4307 -82.8012
lclavicle 4.8578e-014 7.15625e-015
lhumerus -40.6045 18.1549 63.9819
lradius 41.4437
lwrist -5.8861
lhand -7.4966 -32.2525
lfingers 7.12502
lthumb 18.3932 -3.10207
rfemur 4.73656 19.4519 27.5408
rtibia 12.8911
rfoot -17.3629 -34.9204
rtoes 5.92391
lfemur -2.06385 -20.6982 -24.8373
ltibia 22.5372
lfoot -23.4991 23.706
ltoes -20.2276
387
root 8.76609 15.628 -7.88383 -179.937 -2.74548 -179.198
lowerback 8.97402 1.81673 1.4841
upperback -4.39265 2.5194 -0.641854
thorax -9.63727 1.07449 -1.94618
lowerneck -6.54996 -3.93746 -7.4718
upperneck 3.88735 -4.88455 5.093
head 2.78222 -2.39693 2.78511
rclavicle -1.20513e-014 0
rhumerus -33.2706 6.06221 -76.6304
rradius 44.0535
rwrist 12.9241
rhand -9.39675 -53.3236
rfingers 7.12502
rthumb 16.5645 -82.6366
lclavicle -1.20513e-014 0
lhumerus -39.518 17.6252 64.756
lradius 42.2424
lwrist -5.19481
lhand -7.61618 -32.0799
lfingers 7.12502
lthumb 18.2781 -2.91867
rfemur 4.82929 19.5913 27.5675
rtibia 12.8523
rfoot -17.2631 -35.0994
rtoes 5.7779
lfemur -1.97092 -20.8081 -24.8811
ltibia 22.5122
lfoot -23.735 23.5555
ltoes -19.1706
388
root 8.76639 15.6271 -7.87275 -179.97 -2.8118 -179.253
lowerback 8.93488 1.87709 1.45769
upperback -4.33905 2.59178 -0.709733
thorax -9.55016 1.11142 -2.01281
lowerneck -6.30655 -3.97921 -7.46864
upperneck 3.73675 -4.95995 5.17824
head 2.69392 -2.43411 2.81223
rclavicle -4.79568e-015 -1.59028e-015
rhumerus -33.2269 7.61204 -77.0268
rradius 44.7503
rwrist 12.5227
rhand -8.44932 -53.4616
rfingers 7.12502
rthumb 17.4765 -82.696
lclavicle -4.79568e-015 -1.59028e-015
lhumerus -38.5848 16.6046 65.6467
lradius 43.2614
lwrist -3.99195
lhand -7.66246 -31.6041
lfingers 7.12502
lthumb 18.2336 -2.43865
rfemur 4.86831 19.5797 27.5001
rtibia 12.7812
rfoot -17.0163 -35.1336
rtoes 5.11478
lfemur -1.94714 -20.9343 -24.9504
ltibia 22.4944
lfoot -23.9102 23.4718
ltoes -18.461
389
root 8.76753 15.6294 -7.85688 -179.937 -2.9495 -179.208
lowerback 8.9613 1.86176 1.49991
upperback -4.33597 2.57522 -0.734482
thorax -9.56016 1.09979 -2.06122
lowerneck -6.33975 -3.94795 -7.6237
upperneck 3.85553 -4.92286 5.45029
head 2.75487 -2.41133 2.93735
rclavicle -1.30701e-014 1.98785e-015
rhumerus -33.2632 9.07502 -77.4554
rradius 45.5932
rwrist 12.4139
rhand -7.75023 -53.3282
rfingers 7.12502
rthumb 18.1492 -82.5015
lclavicle -1.30701e-014 1.98785e-015
lhumerus -37.9137 15.3007 66.5388
lradius 44.5226
lwrist -2.47068
lhand -7.76348 -31.0844
lfingers 7.12502
lthumb 18.1364 -1.90999
rfemur 4.82022 19.4919 27.513
rtibia 12.6905
rfoot -16.8426 -35.1365
rtoes 4.8444
lfemur -2.06721 -20.9891 -24.8433
ltibia 22.487
lfoot -23.8041 23.3489
ltoes -18.5568
390
root 8.77146 15.6306 -7.84116 -179.946 -3.14648 -179.122
lowerback 9.04526 1.81254 1.52453
upperback -4.34068 2.51418 -0.735009
thorax -9.6166 1.06777 -2.06914
lowerneck -6.56392 -3.84404 -7.9376
upperneck 4.14702 -4.78052 5.9328
head 2.91766 -2.33179 3.17186
rclavicle 1.82633e-014 1.11319e-014
rhumerus -33.4175 10.3466 -77.8517
rradius 46.4953
rwrist 12.8341
rhand -6.82632 -52.9092
rfingers 7.12502
rthumb 19.0379 -81.9975
lclavicle 1.82633e-014 1.11319e-014
lhumerus -37.3357 14.2804 67.2863
lradius 45.6755
lwrist -1.28003
lhand -7.88647 -30.9539
lfingers 7.12502
lthumb 18.0181 -1.76853
rfemur 4.8703 19.4625 27.6351
rtibia 12.5192
rfoot -16.7409 -35.2841
rtoes 5.06859
lfemur -2.19263 -21.0154 -24.6725
ltibia 22.5249
lfoot -23.6763 23.1865
ltoes -18.7831
391
root 8.77578 15.6291 -7.83075 -179.97 -3.2407 -179.068
lowerback 9.08243 1.80524 1.49265
upperback -4.36498 2.49897 -0.747531
thorax -9.66675 1.06052 -2.06427
lowerneck -7.17111 -3.92028 -7.93283
upperneck 5.18802 -4.88776 6.17896
head 3.05603 -2.35613 2.91291
rclavicle 1.40392e-014 1.07344e-014
rhumerus -33.5467 11.5707 -78.25
rradius 47.1892
rwrist 13.1516
rhand -6.22341 -52.3076
rfingers 7.12502
rthumb 19.6176 -81.3378
lclavicle 1.40392e-014 1.07344e-014
lhumerus -36.6843 13.6604 67.883
lradius 46.4775
lwrist -0.646368
lhand -7.79996 -31.0074
lfingers 7.12502
lthumb 18.1013 -1.82971
rfemur 4.97654 19.4622 27.7275
rtibia 12.3028
rfoot -16.5442 -35.3914
rtoes 4.84931
lfemur -2.2446 -21.1312 -24.5969
ltibia 22.5916
lfoot -23.7426 23.2161
ltoes -18.8443
392
root 8.77863 15.627 -7.82314 -179.975 -3.26594 -179.032
lowerback 9.02104 1.83435 1.45584
upperback -4.37633 2.53024 -0.759848
thorax -9.64252 1.07752 -2.05969
lowerneck -6.96144 -3.89764 -8.18318
upperneck 5.18848 -4.87776 6.53896
head 3.03652 -2.34744 3.06733
rclavicle 1.60022e-014 -6.36111e-015
rhumerus -33.6013 12.7228 -78.6293
rradius 47.702
rwrist 13.0326
rhand -6.09977 -51.6383
rfingers 7.12502
rthumb 19.7364 -80.6563
lclavicle 1.60022e-014 -6.36111e-015
lhumerus -35.873 13.264 68.4308
lradius 46.9096
lwrist -0.409748
lhand -7.66789 -31.386
lfingers 7.12502
lthumb 18.2284 -2.2201
rfemur 5.01737 19.4716 27.7759
rtibia 12.1734
rfoot -16.2205 -35.4808
rtoes 3.77444
lfemur -2.25133 -21.3096 -24.5746
ltibia 22.6283
lfoot -24.0711 23.2208
ltoes -17.9789
393
root 8.78192 15.6245 -7.81583 -180.035 -3.3089 -179.032
lowerback 8.99873 1.86292 1.42392
upperback -4.33189 2.56255 -0.791409
thorax -9.57895 1.09617 -2.07873
lowerneck -7.28664 -4.03255 -8.19272
upperneck 5.71677 -5.0489 6.46742
head 3.25971 -2.43144 3.02843
rclavicle 1.38901e-014 1.27222e-014
rhumerus -33.6964 13.3701 -78.9733
rradius 48.2603
rwrist 13.0638
rhand -5.79041 -51.2016
rfingers 7.12502
rthumb 20.0338 -80.1888
lclavicle 1.38901e-014 1.27222e-014
lhumerus -35.1725 12.6028 69.0344
lradius 47.5286
lwrist 0.0557197
lhand -7.82905 -31.7405
lfingers 7.12502
lthumb 18.0733 -2.56019
rfemur 5.09519 19.6187 27.8436
rtibia 12.1321
rfoot -16.1001 -35.7157
rtoes 3.30308
lfemur -2.20488 -21.3895 -24.5899
ltibia 22.6388
lfoot -24.1585 23.2355
ltoes -18.0525
394
root 8.78661 15.623 -7.80229 -180.084 -3.35434 -179.1
lowerback 9.05645 1.87719 1.3022
upperback -4.29967 2.5626 -0.845759
thorax -9.58034 1.10255 -2.07008
lowerneck -7.5608 -4.08695 -7.90514
upperneck 6.25813 -5.12225 6.0887
head 3.45586 -2.47392 2.85375
rclavicle -1.94809e-014 -1.35174e-014
rhumerus -33.8334 13.608 -79.3452
rradius 48.797
rwrist 13.2087
rhand -5.37838 -51.0233
rfingers 7.12502
rthumb 20.4298 -79.9686
lclavicle -1.94809e-014 -1.35174e-014
lhumerus -34.787 11.495 69.6748
lradius 48.5907
lwrist 1.05484
lhand -8.18868 -32.1822
lfingers 7.12502
lthumb 17.7273 -2.97025
rfemur 5.11316 19.7495 27.8229
rtibia 12.1179
rfoot -16.1138 -35.8604
rtoes 3.51001
lfemur -2.22538 -21.3795 -24.6363
ltibia 22.6401
lfoot -23.9269 23.3368
ltoes -19.2427
395
root 8.79098 15.6247 -7.78388 -180.046 -3.4116 -179.108
lowerback 9.01908 1.86043 1.20497
upperback -4.28985 2.52539 -0.859314
thorax -9.55247 1.09069 -2.02181
lowerneck -8.21328 -4.2415 -7.38375
upperneck 7.05916 -5.31404 5.44281
head 3.78743 -2.57682 2.54296
rclavicle 5.88651e-014 -1.19271e-014
rhumerus -33.9293 13.9631 -79.7681
rradius 49.215
rwrist 13.0411
rhand -5.68725 -50.5672
rfingers 7.12502
rthumb 20.133 -79.544
lclavicle 5.88651e-014 -1.19271e-014
lhumerus -34.4095 10.5104 70.2518
lradius 49.467
lwrist 1.83945
lhand -8.36805 -32.8207
lfingers 7.12502
lthumb 17.5547 -3.5933
rfemur 4.96573 19.7801 27.791
rtibia 12.1107
rfoot -16.2014 -35.8474
rtoes 4.12326
lfemur -2.38367 -21.3839 -24.5596
ltibia 22.6336
lfoot -23.8234 23.2758
ltoes -19.2093
396
root 8.79402 15.6259 -7.7725 -180.032 -3.48138 -179.067
lowerback 8.93754 1.85152 1.19678
upperback -4.26654 2.51148 -0.861888
thorax -9.47947 1.08599 -2.01345
lowerneck -7.38417 -4.06009 -7.95259
upperneck 6.44149 -5.12463 6.29838
head 3.48911 -2.47297 2.92759
rclavicle 4.24902e-014 -7.15625e-015
rhumerus -34.0217 14.2446 -80.1725
rradius 49.5929
rwrist 12.7963
rhand -6.25651 -50.1193
rfingers 7.12502
rthumb 19.5858 -79.1527
lclavicle 4.24902e-014 -7.15625e-015
lhumerus -33.9071 9.76723 70.7751
lradius 49.9201
lwrist 2.06477
lhand -8.40147 -32.6485
lfingers 7.12502
lthumb 17.5225 -3.41814
rfemur 4.89723 19.8982 27.8489
rtibia 12.0973
rfoot -16.4013 -35.9701
rtoes 4.80893
lfemur -2.46785 -21.4778 -24.4777
ltibia 22.6296
lfoot -23.8532 23.2424
ltoes -18.6368
397
root 8.79648 15.6251 -7.76511 -180.105 -3.58741 -178.999
lowerback 8.97238 1.84404 1.26575
upperback -4.23247 2.51206 -0.86723
thorax -9.45952 1.08309 -2.05855
lowerneck -8.10402 -4.12595 -8.03249
upperneck 7.34036 -5.19337 6.32745
head 3.88753 -2.49968 2.92783
rclavicle 7.52897e-015 -1.19271e-014
rhumerus -34.0696 14.1471 -80.4964
rradius 49.8744
rwrist 12.8377
rhand -6.20206 -50.1772
rfingers 7.12502
rthumb 19.6381 -79.2053
lclavicle 7.52897e-015 -1.19271e-014
lhumerus -33.4502 9.13433 71.3005
lradius 50.3248
lwrist 2.09998
lhand -8.21698 -32.006
lfingers 7.12502
lthumb 17.7 -2.79156
rfemur 4.97275 19.9038 27.9698
rtibia 12.0898
rfoot -16.5098 -36.0683
rtoes 5.04001
lfemur -2.4157 -21.6462 -24.4288
ltibia 22.6313
lfoot -23.9212 23.2577
ltoes -18.2043
